# xmcd CD database file
#
# Track frame offsets:
#	150
#	10090
#	21702
#	34927
#	45985
#	56840
#	73332
#	90910
#	109312
#	122462
#	135615
#	143895
#	158945
#	173335
#	183550
#	195625
#
# Disc length: 2774 seconds
#
# Revision: 0
# Processed by: cddbd v1.5.1PL2 Copyright (c) Steve Scherf et al.
# Submitted via: CDex 1.51
#
DISCID=dc0ad410
DTITLE=Stew Clayton - (Sunshine SSCD 4075) The Farmer - Vol 2
DYEAR=1900
DGENRE=Country
TTITLE0=Life Of A Poor Boy
TTITLE1=Sweet Violets
TTITLE2=The Old Farmer's Song
TTITLE3=Out Behind The Barn
TTITLE4=Pat McGinty's Mistake
TTITLE5=The Farmer's Daughter
TTITLE6=When The Works All Done This Fall
TTITLE7=Back Home Again
TTITLE8=My Boyhood Days On The Farm
TTITLE9=The Little White House
TTITLE10=The Farmer's Rock
TTITLE11=Red River Valley
TTITLE12=A Farmer's Conversation With His Mule
TTITLE13=The Old Homeplace
TTITLE14=My Little Two Acre Farm
TTITLE15=Wings In The Morning
EXTD=
EXTT0=
EXTT1=
EXTT2=
EXTT3=
EXTT4=
EXTT5=
EXTT6=
EXTT7=
EXTT8=
EXTT9=
EXTT10=
EXTT11=
EXTT12=
EXTT13=
EXTT14=
EXTT15=
PLAYORDER=
